<svg id="Layer_1" data-name="Layer 1" xmlns="http://www.w3.org/2000/svg" viewBox="0 0 74.16 13.63"><defs><style>.cls-1{fill:#6050e9;}</style></defs><title>logo</title><path class="cls-1" d="M10.84,4.57V7.74L7.33,16.67a.88.88,0,0,1-1.7,0L2.14,7.74V4.57a.89.89,0,0,1,.25-.63A.84.84,0,0,1,3,3.69a.82.82,0,0,1,.61.25.85.85,0,0,1,.25.63V7.38l2.62,6.68L9.11,7.4V4.57a.89.89,0,0,1,.25-.63A.83.83,0,0,1,10,3.69a.84.84,0,0,1,.61.25A.89.89,0,0,1,10.84,4.57Z" transform="translate(-2.14 -3.69)"/><path d="M21.2,7.13H16v3.59h2.25a.74.74,0,0,1,.52.22.7.7,0,0,1,.22.52.73.73,0,0,1-.22.54.71.71,0,0,1-.52.22H16v3.62h5.24a.73.73,0,0,1,.52.21.75.75,0,0,1,.22.53.7.7,0,0,1-.23.52.74.74,0,0,1-.53.21H14.5V5.63h6.7a.74.74,0,0,1,.53,1.28A.75.75,0,0,1,21.2,7.13Z" transform="translate(-2.14 -3.69)"/><path d="M32.81,6.39V17.31h-2l-4-9.07v8.34a.72.72,0,0,1-.21.52.74.74,0,0,1-.53.21.72.72,0,0,1-.73-.73V5.63h1.95l4,9.06V6.39a.71.71,0,0,1,.22-.53.74.74,0,0,1,.53-.23.75.75,0,0,1,.53.22A.76.76,0,0,1,32.81,6.39Z" transform="translate(-2.14 -3.69)"/><path d="M36.23,7.65v-2h7.45v2a.71.71,0,0,1-.22.53.72.72,0,0,1-.52.21.73.73,0,0,1-.53-.22.69.69,0,0,1-.22-.52V7.13h-1.5v9.45a.72.72,0,0,1-.21.52.73.73,0,0,1-.52.21.76.76,0,0,1-.54-.21.69.69,0,0,1-.22-.52V7.13H37.71v.52a.73.73,0,0,1-.22.52.72.72,0,0,1-.52.21.7.7,0,0,1-.52-.21A.69.69,0,0,1,36.23,7.65Z" transform="translate(-2.14 -3.69)"/><path d="M47.1,15.1V6.39a.75.75,0,0,1,.22-.53.71.71,0,0,1,.52-.23.74.74,0,0,1,.52.22.7.7,0,0,1,.22.52V15.1a.66.66,0,0,0,.22.5.69.69,0,0,0,.52.22h3a.7.7,0,0,0,.52-.21.67.67,0,0,0,.22-.51V6.39a.76.76,0,0,1,.21-.54.75.75,0,0,1,.53-.22.73.73,0,0,1,.52.22.77.77,0,0,1,.22.54v8.69a2.24,2.24,0,0,1-2.22,2.23h-3A2.22,2.22,0,0,1,47.1,15.1Z" transform="translate(-2.14 -3.69)"/><path d="M58,16.58V5.63h5.22a2.24,2.24,0,0,1,2.21,2.24v.84a2.22,2.22,0,0,1-2.21,2.23h-.94l3,5.19a.79.79,0,0,1,.14.45.69.69,0,0,1-.22.52.77.77,0,0,1-.52.21.71.71,0,0,1-.67-.39l-3.46-6H59.5v5.64a.69.69,0,0,1-.22.52.76.76,0,0,1-.53.21.74.74,0,0,1-.53-.21A.72.72,0,0,1,58,16.58Zm1.48-7.11h3.74a.71.71,0,0,0,.52-.22A.69.69,0,0,0,64,8.73V7.87a.71.71,0,0,0-.22-.53.7.7,0,0,0-.52-.21H59.49Z" transform="translate(-2.14 -3.69)"/><path d="M68.91,16.29l3-10.11a.73.73,0,0,1,.75-.55.65.65,0,0,1,.69.47l2.94,10.26a.57.57,0,0,1,0,.22.72.72,0,0,1-.21.52.66.66,0,0,1-.48.21.68.68,0,0,1-.74-.53l-.59-2H70.9l-.64,2.15a.48.48,0,0,1-.22.27.79.79,0,0,1-.42.12.75.75,0,0,1-.76-.75A.86.86,0,0,1,68.91,16.29Zm3.71-7.24-1.27,4.23h2.5Z" transform="translate(-2.14 -3.69)"/></svg>